<svg version="1.1" id="Layer_1" xmlns="http://www.w3.org/2000/svg" xmlns:xlink="http://www.w3.org/1999/xlink" x="0px" y="0px"
	 width="100%" viewBox="0 0 1587 2245" enable-background="new 0 0 1587 2245" xml:space="preserve">
<path fill="#000000" opacity="1.000000" stroke="none" 
	d="
M889.000000,2246.000000 
	C592.666687,2246.000000 296.833344,2246.000000 1.000000,2246.000000 
	C1.000000,1497.666626 1.000000,749.333313 1.000000,1.000000 
	C530.000000,1.000000 1059.000000,1.000000 1588.000000,1.000000 
	C1588.000000,749.333313 1588.000000,1497.666626 1588.000000,2246.000000 
	C1355.166626,2246.000000 1122.333374,2246.000000 889.000000,2246.000000 
M311.033447,624.457947 
	C310.181122,624.918884 309.368988,625.486389 308.470642,625.825256 
	C278.001221,637.320068 249.190750,652.148926 221.476837,669.165161 
	C201.989395,681.130371 183.723450,694.781860 167.142166,710.508728 
	C156.675461,720.436096 146.849152,731.055786 137.007370,741.618164 
	C131.550079,747.474976 126.117325,753.486145 121.604897,760.066467 
	C109.719086,777.398926 98.051819,794.897339 86.840782,812.672302 
	C74.309715,832.540222 65.082771,854.081055 57.029922,876.075928 
	C48.759247,898.665649 41.756004,921.649231 37.800846,945.460876 
	C35.594410,958.744324 33.025021,971.972778 31.093239,985.294739 
	C29.918121,993.398682 29.792444,1001.649109 28.932613,1009.806030 
	C27.751965,1021.006348 25.465919,1032.159912 25.197487,1043.370605 
	C24.780746,1060.775146 25.502798,1078.215820 26.057280,1095.631348 
	C26.408237,1106.654297 27.157690,1117.672974 28.041801,1128.668457 
	C29.197174,1143.037598 30.489603,1157.400635 32.039219,1171.732056 
	C33.846207,1188.443726 35.954250,1205.123413 38.006241,1221.807739 
	C39.956711,1237.666870 41.437809,1253.611328 44.148094,1269.342163 
	C47.691978,1289.911377 51.981190,1310.364136 56.430496,1330.762207 
	C60.971874,1351.582275 66.094856,1372.275757 70.964020,1393.024414 
	C77.566864,1421.160767 84.142128,1449.303467 90.782280,1477.430908 
	C96.494698,1501.628540 101.861221,1525.918335 108.139992,1549.969116 
	C116.323944,1581.317627 122.944756,1612.969360 127.950165,1644.949585 
	C130.746506,1662.815674 133.454239,1680.760864 134.760544,1698.775024 
	C135.865265,1714.009399 135.100311,1729.320801 132.151871,1744.554810 
	C126.429489,1774.121338 112.416222,1799.200073 92.275429,1821.031860 
	C85.482872,1828.394653 77.510490,1834.670288 70.056961,1841.420288 
	C69.045120,1842.336670 67.914139,1843.121338 66.838303,1843.967041 
	C78.968048,1839.831909 90.393890,1834.654175 102.181343,1830.503418 
	C123.437080,1823.018555 144.701553,1815.423828 166.347229,1809.217285 
	C189.596497,1802.551270 213.218140,1797.120850 236.809998,1791.732422 
	C255.889954,1787.374878 275.117249,1783.608521 294.371338,1780.083130 
	C311.143890,1777.012329 328.040558,1774.614746 344.891174,1771.976196 
	C359.988861,1769.611938 375.055023,1766.970947 390.215424,1765.104614 
	C404.847870,1763.303345 419.572998,1762.210693 434.275879,1761.038574 
	C448.865967,1759.875610 463.473083,1758.901001 478.083862,1758.030396 
	C491.588959,1757.225586 505.107666,1756.144287 518.622437,1756.114258 
	C544.209961,1756.057373 569.806763,1756.382935 595.384521,1757.096558 
	C613.002136,1757.587891 630.594543,1758.992188 648.197388,1760.002808 
	C659.544983,1760.654175 670.890747,1761.336914 682.237915,1761.997192 
	C699.507751,1763.002075 716.778015,1763.999756 734.048096,1765.000122 
	C745.561523,1765.667114 757.075134,1766.329224 768.588257,1767.000854 
	C779.935303,1767.662598 791.281372,1768.340820 802.628662,1768.997681 
	C814.308167,1769.673950 825.989136,1770.325928 837.668640,1771.002075 
	C849.015930,1771.658936 860.361816,1772.341064 871.709106,1772.998047 
	C883.388672,1773.674561 895.062439,1774.514038 906.751099,1774.953735 
	C920.833069,1775.483521 934.929199,1775.979614 949.017212,1775.931274 
	C973.439758,1775.847534 997.864563,1775.493896 1022.281067,1774.934082 
	C1034.635864,1774.650757 1046.992798,1773.902466 1059.315796,1772.940308 
	C1072.856445,1771.882935 1086.399902,1770.654785 1099.867554,1768.921631 
	C1115.338989,1766.930908 1130.946289,1765.245483 1146.103882,1761.738892 
	C1169.953735,1756.221191 1193.727295,1750.084229 1217.061157,1742.715088 
	C1236.516968,1736.570557 1255.807983,1729.361450 1274.225220,1720.627441 
	C1291.679565,1712.349854 1308.264282,1702.041016 1324.572876,1691.597168 
	C1343.063843,1679.756226 1360.024902,1665.660278 1375.269531,1649.904785 
	C1389.170532,1635.537964 1402.075317,1620.146484 1414.705811,1604.626221 
	C1432.027832,1583.340698 1446.121216,1559.794189 1458.605103,1535.471924 
	C1470.387085,1512.516724 1480.852051,1488.857300 1491.192505,1465.200073 
	C1498.208252,1449.149414 1505.179565,1432.909424 1510.076172,1416.142334 
	C1517.351685,1391.230347 1523.335815,1365.898315 1528.817627,1340.518066 
	C1533.640869,1318.187744 1537.251953,1295.583740 1540.971313,1273.030273 
	C1544.595093,1251.055054 1548.422363,1229.069824 1550.773560,1206.941650 
	C1552.844238,1187.452515 1553.263916,1167.768555 1553.911011,1148.154175 
	C1554.371948,1134.182251 1554.122681,1120.181641 1553.958374,1106.196533 
	C1553.845581,1096.604248 1553.529419,1087.004761 1552.955200,1077.429565 
	C1552.139038,1063.817749 1551.176147,1050.209473 1549.951172,1036.628906 
	C1548.850464,1024.425903 1547.840332,1012.174866 1545.838989,1000.102600 
	C1543.007080,983.020935 1540.033325,965.900208 1535.818970,949.122986 
	C1526.469849,911.903870 1515.717529,875.069641 1497.407715,841.034485 
	C1490.296753,827.816589 1482.766479,814.765320 1474.543823,802.216980 
	C1459.124512,778.685852 1441.739746,756.651306 1420.957642,737.536987 
	C1409.096191,726.627197 1397.482056,715.320679 1384.720825,705.544983 
	C1361.717651,687.923584 1336.948120,673.063599 1310.605957,660.725281 
	C1290.258545,651.194824 1269.268433,643.591553 1248.020874,636.495056 
	C1215.896606,625.765625 1183.500610,616.008118 1150.395508,608.764221 
	C1127.339600,603.719238 1104.300903,598.555786 1081.133423,594.070862 
	C1061.382202,590.247314 1041.490479,587.105408 1021.601318,584.050598 
	C1002.448975,581.108948 983.248718,578.432678 964.016174,576.074219 
	C947.615234,574.062988 931.150024,572.544800 914.691956,571.040955 
	C901.607300,569.845398 888.495239,568.933960 875.386719,568.020752 
	C864.380249,567.254028 853.365906,566.573120 842.346619,566.022888 
	C827.171265,565.265198 811.993591,564.457336 796.806641,564.051086 
	C776.556702,563.509338 756.296753,563.060852 736.041443,563.072449 
	C713.785889,563.085205 691.530090,563.633362 669.275452,564.010315 
	C652.851990,564.288452 636.428711,564.609863 620.008484,565.032227 
	C614.746704,565.167542 609.487122,565.597534 604.239868,566.047546 
	C589.377563,567.321899 574.523499,568.693176 559.663330,569.992859 
	C551.489441,570.707764 543.270020,571.050110 535.141357,572.102417 
	C521.754822,573.835449 508.419128,575.968506 495.073212,578.006104 
	C479.974274,580.311340 464.783813,582.179199 449.821960,585.178955 
	C430.988708,588.954956 412.245392,593.294861 393.653503,598.123779 
	C378.082336,602.168152 362.731537,607.097229 347.382355,611.948364 
	C335.414642,615.730835 323.599335,619.995605 311.033447,624.457947 
z"/>
<path fill="#D5E9B7" opacity="1.000000" stroke="none" 
	d="
M311.374878,624.251953 
	C323.599335,619.995605 335.414642,615.730835 347.382355,611.948364 
	C362.731537,607.097229 378.082336,602.168152 393.653503,598.123779 
	C412.245392,593.294861 430.988708,588.954956 449.821960,585.178955 
	C464.783813,582.179199 479.974274,580.311340 495.073212,578.006104 
	C508.419128,575.968506 521.754822,573.835449 535.141357,572.102417 
	C543.270020,571.050110 551.489441,570.707764 559.663330,569.992859 
	C574.523499,568.693176 589.377563,567.321899 604.239868,566.047546 
	C609.487122,565.597534 614.746704,565.167542 620.008484,565.032227 
	C636.428711,564.609863 652.851990,564.288452 669.275452,564.010315 
	C691.530090,563.633362 713.785889,563.085205 736.041443,563.072449 
	C756.296753,563.060852 776.556702,563.509338 796.806641,564.051086 
	C811.993591,564.457336 827.171265,565.265198 842.346619,566.022888 
	C853.365906,566.573120 864.380249,567.254028 875.386719,568.020752 
	C888.495239,568.933960 901.607300,569.845398 914.691956,571.040955 
	C931.150024,572.544800 947.615234,574.062988 964.016174,576.074219 
	C983.248718,578.432678 1002.448975,581.108948 1021.601318,584.050598 
	C1041.490479,587.105408 1061.382202,590.247314 1081.133423,594.070862 
	C1104.300903,598.555786 1127.339600,603.719238 1150.395508,608.764221 
	C1183.500610,616.008118 1215.896606,625.765625 1248.020874,636.495056 
	C1269.268433,643.591553 1290.258545,651.194824 1310.605957,660.725281 
	C1336.948120,673.063599 1361.717651,687.923584 1384.720825,705.544983 
	C1397.482056,715.320679 1409.096191,726.627197 1420.957642,737.536987 
	C1441.739746,756.651306 1459.124512,778.685852 1474.543823,802.216980 
	C1482.766479,814.765320 1490.296753,827.816589 1497.407715,841.034485 
	C1515.717529,875.069641 1526.469849,911.903870 1535.818970,949.122986 
	C1540.033325,965.900208 1543.007080,983.020935 1545.838989,1000.102600 
	C1547.840332,1012.174866 1548.850464,1024.425903 1549.951172,1036.628906 
	C1551.176147,1050.209473 1552.139038,1063.817749 1552.955200,1077.429565 
	C1553.529419,1087.004761 1553.845581,1096.604248 1553.958374,1106.196533 
	C1554.122681,1120.181641 1554.371948,1134.182251 1553.911011,1148.154175 
	C1553.263916,1167.768555 1552.844238,1187.452515 1550.773560,1206.941650 
	C1548.422363,1229.069824 1544.595093,1251.055054 1540.971313,1273.030273 
	C1537.251953,1295.583740 1533.640869,1318.187744 1528.817627,1340.518066 
	C1523.335815,1365.898315 1517.351685,1391.230347 1510.076172,1416.142334 
	C1505.179565,1432.909424 1498.208252,1449.149414 1491.192505,1465.200073 
	C1480.852051,1488.857300 1470.387085,1512.516724 1458.605103,1535.471924 
	C1446.121216,1559.794189 1432.027832,1583.340698 1414.705811,1604.626221 
	C1402.075317,1620.146484 1389.170532,1635.537964 1375.269531,1649.904785 
	C1360.024902,1665.660278 1343.063843,1679.756226 1324.572876,1691.597168 
	C1308.264282,1702.041016 1291.679565,1712.349854 1274.225220,1720.627441 
	C1255.807983,1729.361450 1236.516968,1736.570557 1217.061157,1742.715088 
	C1193.727295,1750.084229 1169.953735,1756.221191 1146.103882,1761.738892 
	C1130.946289,1765.245483 1115.338989,1766.930908 1099.867554,1768.921631 
	C1086.399902,1770.654785 1072.856445,1771.882935 1059.315796,1772.940308 
	C1046.992798,1773.902466 1034.635864,1774.650757 1022.281067,1774.934082 
	C997.864563,1775.493896 973.439758,1775.847534 949.017212,1775.931274 
	C934.929199,1775.979614 920.833069,1775.483521 906.751099,1774.953735 
	C895.062439,1774.514038 883.388672,1773.674561 871.709106,1772.998047 
	C860.361816,1772.341064 849.015930,1771.658936 837.668640,1771.002075 
	C825.989136,1770.325928 814.308167,1769.673950 802.628662,1768.997681 
	C791.281372,1768.340820 779.935303,1767.662598 768.588257,1767.000854 
	C757.075134,1766.329224 745.561523,1765.667114 734.048096,1765.000122 
	C716.778015,1763.999756 699.507751,1763.002075 682.237915,1761.997192 
	C670.890747,1761.336914 659.544983,1760.654175 648.197388,1760.002808 
	C630.594543,1758.992188 613.002136,1757.587891 595.384521,1757.096558 
	C569.806763,1756.382935 544.209961,1756.057373 518.622437,1756.114258 
	C505.107666,1756.144287 491.588959,1757.225586 478.083862,1758.030396 
	C463.473083,1758.901001 448.865967,1759.875610 434.275879,1761.038574 
	C419.572998,1762.210693 404.847870,1763.303345 390.215424,1765.104614 
	C375.055023,1766.970947 359.988861,1769.611938 344.891174,1771.976196 
	C328.040558,1774.614746 311.143890,1777.012329 294.371338,1780.083130 
	C275.117249,1783.608521 255.889954,1787.374878 236.809998,1791.732422 
	C213.218140,1797.120850 189.596497,1802.551270 166.347229,1809.217285 
	C144.701553,1815.423828 123.437080,1823.018555 102.181343,1830.503418 
	C90.393890,1834.654175 78.968048,1839.831909 66.838303,1843.967041 
	C67.914139,1843.121338 69.045120,1842.336670 70.056961,1841.420288 
	C77.510490,1834.670288 85.482872,1828.394653 92.275429,1821.031860 
	C112.416222,1799.200073 126.429489,1774.121338 132.151871,1744.554810 
	C135.100311,1729.320801 135.865265,1714.009399 134.760544,1698.775024 
	C133.454239,1680.760864 130.746506,1662.815674 127.950165,1644.949585 
	C122.944756,1612.969360 116.323944,1581.317627 108.139992,1549.969116 
	C101.861221,1525.918335 96.494698,1501.628540 90.782280,1477.430908 
	C84.142128,1449.303467 77.566864,1421.160767 70.964020,1393.024414 
	C66.094856,1372.275757 60.971874,1351.582275 56.430496,1330.762207 
	C51.981190,1310.364136 47.691978,1289.911377 44.148094,1269.342163 
	C41.437809,1253.611328 39.956711,1237.666870 38.006241,1221.807739 
	C35.954250,1205.123413 33.846207,1188.443726 32.039219,1171.732056 
	C30.489603,1157.400635 29.197174,1143.037598 28.041801,1128.668457 
	C27.157690,1117.672974 26.408237,1106.654297 26.057280,1095.631348 
	C25.502798,1078.215820 24.780746,1060.775146 25.197487,1043.370605 
	C25.465919,1032.159912 27.751965,1021.006348 28.932613,1009.806030 
	C29.792444,1001.649109 29.918121,993.398682 31.093239,985.294739 
	C33.025021,971.972778 35.594410,958.744324 37.800846,945.460876 
	C41.756004,921.649231 48.759247,898.665649 57.029922,876.075928 
	C65.082771,854.081055 74.309715,832.540222 86.840782,812.672302 
	C98.051819,794.897339 109.719086,777.398926 121.604897,760.066467 
	C126.117325,753.486145 131.550079,747.474976 137.007370,741.618164 
	C146.849152,731.055786 156.675461,720.436096 167.142166,710.508728 
	C183.723450,694.781860 201.989395,681.130371 221.476837,669.165161 
	C249.190750,652.148926 278.001221,637.320068 308.470642,625.825256 
	C309.368988,625.486389 310.181122,624.918884 311.374878,624.251953 
M940.973328,883.962891 
	C940.973328,883.962891 940.938843,883.901917 941.281006,884.582520 
	C930.038452,901.764038 918.795837,918.945496 907.728333,935.859314 
	C923.526184,934.787842 938.966248,930.227173 952.332031,920.050903 
	C978.436523,900.175537 985.654907,872.789978 983.003540,841.605774 
	C982.728394,838.369507 980.630798,837.379089 977.802185,837.637268 
	C973.994507,837.984741 970.174683,838.364929 966.413818,839.033325 
	C940.702026,843.602966 919.235962,854.801575 905.629456,878.196655 
	C896.981445,893.066162 894.794189,909.133362 896.181213,926.272400 
	C900.797791,920.385986 904.835815,914.698547 909.426025,909.498535 
	C918.485229,899.235962 928.438354,889.974915 940.973328,883.962891 
M907.168091,780.132385 
	C907.323120,780.257263 907.478149,780.382141 907.451904,781.224487 
	C902.261230,794.760742 896.819214,808.221191 888.021545,819.890137 
	C860.360657,856.578735 832.878357,893.410461 804.654541,929.663269 
	C786.140076,953.444702 766.580322,976.391357 751.613037,1002.741516 
	C730.872620,1039.255737 721.915039,1077.656128 732.050964,1119.350464 
	C738.266602,1144.918579 750.508423,1167.345581 766.933044,1187.675171 
	C769.262146,1190.557983 771.089844,1191.157349 773.219177,1187.343994 
	C778.327576,1178.195801 783.607788,1169.141846 788.944641,1160.124390 
	C790.620239,1157.293335 790.910828,1155.030884 788.068726,1152.739868 
	C785.745972,1150.867432 783.556885,1148.773804 781.575806,1146.541138 
	C763.736511,1126.435425 757.220581,1102.620728 759.237244,1076.265503 
	C759.730591,1069.818115 761.643921,1063.479492 762.904358,1057.090820 
	C763.359314,1057.132324 763.814331,1057.173950 764.269287,1057.215576 
	C764.504700,1058.441406 764.766968,1059.662842 764.971252,1060.893921 
	C766.658813,1071.063721 767.871704,1081.339111 770.117798,1091.383545 
	C774.084900,1109.124634 781.987427,1124.887207 795.579407,1137.399658 
	C799.254150,1140.782593 800.987854,1140.544434 802.936951,1136.020508 
	C804.180969,1133.133057 805.218933,1130.104736 805.910828,1127.040527 
	C808.858826,1113.984863 806.452637,1101.239014 803.433289,1088.537842 
	C797.803711,1064.856079 792.592834,1041.102905 794.052124,1016.509644 
	C795.416504,993.515259 801.310608,972.277527 817.729492,954.987305 
	C837.281860,934.397400 868.808167,941.156250 877.968201,968.046631 
	C885.449097,990.007874 875.841125,1013.535583 854.687988,1025.541748 
	C843.941895,1031.641113 832.210938,1034.414429 819.156555,1036.432983 
	C820.360901,1037.989502 820.924255,1039.503296 821.927185,1039.896973 
	C839.626709,1046.843994 857.100464,1047.260132 873.569092,1036.624023 
	C914.397034,1010.255920 908.045959,963.821777 888.076843,938.401917 
	C879.630920,927.650635 868.253235,921.368896 855.205750,917.872375 
	C851.587646,916.902832 849.440186,915.263672 851.699097,911.140259 
	C865.466675,886.009399 881.129578,862.494202 904.284729,844.672729 
	C914.531982,836.785889 924.899536,828.563904 933.272644,818.826050 
	C958.056702,790.002747 962.469666,756.363525 953.602722,720.319824 
	C952.370667,715.311584 950.048157,714.277527 945.031006,715.842468 
	C938.682190,717.822693 932.338806,719.834045 926.062439,722.030151 
	C909.241150,727.916138 893.705994,736.066162 880.748779,748.547241 
	C860.029419,768.505249 850.454407,793.507935 848.313477,821.658569 
	C847.698242,829.748169 848.219177,837.924133 848.219177,846.857666 
	C855.020203,837.556335 861.063721,828.978455 867.432251,820.648987 
	C878.983582,805.541077 891.254272,791.086914 907.168091,780.132385 
M910.105164,1097.117065 
	C909.973999,1096.982178 909.842896,1096.847168 909.852722,1096.019287 
	C913.866699,1087.986816 917.767090,1079.895264 921.918335,1071.934326 
	C930.602966,1055.279907 938.909058,1038.395264 948.390015,1022.202148 
	C953.392822,1013.657593 960.539124,1006.368103 966.717590,998.511902 
	C967.161926,998.836121 967.606201,999.160339 968.050537,999.484558 
	C961.390930,1026.134644 951.045410,1051.423462 939.054199,1076.014648 
	C939.530334,1076.317871 939.696655,1076.510254 939.807800,1076.482422 
	C974.117981,1067.881714 999.019409,1048.374390 1010.798279,1014.243103 
	C1020.704834,985.537231 1014.929871,957.733154 1004.840759,930.343628 
	C1003.642639,927.091125 1001.243347,926.726990 998.374146,928.060608 
	C980.016052,936.593384 962.560059,946.562500 947.865784,960.722656 
	C928.687378,979.203735 917.393921,1002.207153 911.099304,1027.665405 
	C901.629333,1065.965576 882.508301,1097.952393 851.663574,1122.861816 
	C818.485291,1149.656006 793.713318,1182.793945 777.624695,1222.362915 
	C775.960571,1226.455566 773.905884,1230.389282 771.567078,1235.392090 
	C769.009949,1230.785034 766.998474,1227.184937 765.008850,1223.572754 
	C751.662598,1199.342896 733.943359,1179.221802 710.202148,1164.612183 
	C682.024719,1147.272583 650.863647,1140.869019 618.390808,1138.986938 
	C586.979980,1137.166504 555.378479,1138.319092 524.192505,1132.973145 
	C499.896240,1128.808228 476.700043,1121.473145 455.278259,1109.041016 
	C453.593872,1108.063599 452.018524,1106.898071 450.392517,1105.820068 
	C450.628510,1105.241699 450.864502,1104.663208 451.100494,1104.084839 
	C481.636322,1109.419800 512.172180,1114.754639 543.331299,1120.198486 
	C532.656982,1110.132446 522.952881,1100.292725 512.487122,1091.343384 
	C504.945923,1084.894775 496.973785,1078.477539 488.187408,1074.038330 
	C447.438385,1053.450562 408.223755,1060.601440 370.166412,1082.102905 
	C367.036682,1083.871216 367.197357,1086.198975 369.354462,1088.684814 
	C375.902344,1096.230225 381.972717,1104.266479 389.100677,1111.217896 
	C409.591919,1131.201904 433.118988,1145.902466 462.383759,1148.467163 
	C474.456818,1149.525269 486.688690,1148.810181 498.848450,1148.829712 
	C511.806427,1148.850586 524.195801,1151.605957 537.052124,1156.289185 
	C534.335449,1157.356689 532.366821,1158.059326 530.454834,1158.891968 
	C483.652191,1179.275635 453.806366,1212.983521 447.203094,1264.928223 
	C446.149933,1273.213013 447.440491,1274.828613 455.966370,1274.040283 
	C467.563080,1272.968262 479.167450,1271.715576 490.665253,1269.889893 
	C517.565674,1265.617798 542.177063,1256.010498 561.482544,1236.047974 
	C574.329346,1222.764038 586.344666,1208.675781 598.708801,1194.926636 
	C598.859436,1194.759155 598.701111,1194.313599 598.670288,1193.625977 
	C564.248413,1197.703613 534.919617,1215.296753 504.028473,1228.950928 
	C508.288239,1220.548706 513.839783,1213.300659 521.224060,1207.840576 
	C546.604614,1189.073853 575.523682,1179.953003 606.748230,1178.206543 
	C633.672363,1176.700562 659.354370,1182.695312 683.961853,1193.369019 
	C709.869751,1204.606689 729.467102,1222.530518 741.225830,1248.514404 
	C749.043335,1265.789429 752.367493,1284.135254 752.635620,1302.884155 
	C753.364685,1353.865601 753.642822,1404.853882 753.916748,1455.840576 
	C753.948853,1461.812378 752.837402,1467.790283 752.256042,1473.765381 
	C754.322327,1471.932861 755.731506,1469.882935 756.557617,1467.620239 
	C760.775757,1456.066528 765.187500,1444.566772 768.898926,1432.847900 
	C780.088013,1397.517578 785.729675,1360.984375 792.056763,1324.591431 
	C797.941040,1290.745605 806.152283,1257.528320 820.897461,1226.253540 
	C841.240906,1183.104492 872.832642,1152.344238 918.559204,1136.812744 
	C943.093506,1128.479492 968.377808,1125.149170 994.085022,1123.963745 
	C1010.217407,1123.219849 1026.611938,1123.910034 1042.422852,1121.219116 
	C1096.238647,1112.059570 1130.494507,1079.598877 1148.234497,1028.730225 
	C1148.753906,1027.240723 1148.486084,1025.476562 1148.585205,1023.840515 
	C1130.665161,1043.206909 1112.692749,1061.622681 1090.373779,1075.208374 
	C1069.645142,1087.825928 1032.017212,1096.506104 1016.911133,1092.391968 
	C1021.592224,1089.120972 1026.799438,1085.835327 1031.618530,1082.054810 
	C1054.424561,1064.163818 1076.707397,1045.575928 1099.968628,1028.302979 
	C1128.472900,1007.136780 1136.658081,978.620605 1132.932495,945.060486 
	C1132.496582,941.132874 1130.353271,939.558655 1126.342285,940.562805 
	C1122.471680,941.531677 1118.508667,942.131104 1114.639771,943.105896 
	C1088.430542,949.709412 1067.143677,962.816284 1055.120728,988.193237 
	C1049.572876,999.902954 1047.667847,1012.301086 1047.117065,1026.180786 
	C1054.341187,1019.294373 1060.554077,1013.058105 1067.112183,1007.208862 
	C1073.648315,1001.379089 1080.531006,995.937622 1087.261719,990.325928 
	C1087.590332,990.695496 1087.918945,991.065063 1088.247559,991.434570 
	C1087.858643,992.317932 1087.528564,993.232971 1087.072144,994.079956 
	C1068.063354,1029.349243 1040.434570,1055.363892 1003.458435,1070.987915 
	C973.579407,1083.613037 941.298889,1088.062256 910.105164,1097.117065 
M693.108215,1600.616211 
	C661.316101,1630.215698 624.354187,1650.447754 582.600891,1662.310425 
	C554.785889,1670.212769 526.292664,1674.082520 497.766937,1677.977295 
	C491.350739,1678.853394 485.015717,1680.324219 478.643341,1681.521240 
	C478.680969,1682.027466 478.718628,1682.533691 478.756256,1683.039917 
	C480.307831,1683.415039 481.840393,1683.941772 483.414246,1684.139160 
	C490.351227,1685.008911 497.289703,1685.889648 504.246552,1686.573608 
	C530.824707,1689.186768 557.396545,1690.072144 584.046509,1687.179321 
	C639.317261,1681.179688 687.126953,1658.635498 727.385559,1620.870605 
	C786.525879,1565.393677 823.186340,1496.756714 841.938293,1418.310425 
	C848.328125,1391.579102 847.948486,1364.122070 849.174500,1336.833252 
	C849.926941,1320.086792 850.888672,1303.107300 854.302124,1286.764282 
	C869.802368,1212.552246 940.301758,1188.331787 997.011230,1210.683838 
	C1011.769165,1216.500732 1023.963684,1226.407837 1035.992798,1236.473022 
	C1050.365356,1248.499023 1065.605469,1259.089966 1083.519775,1265.314209 
	C1107.721191,1273.722534 1132.756104,1272.435669 1157.724243,1271.728027 
	C1162.628418,1271.589111 1163.709229,1269.835327 1162.413574,1264.716675 
	C1149.969727,1215.558472 1119.291992,1182.892090 1070.479370,1170.411255 
	C1023.745056,1158.461914 976.263123,1161.266602 929.521973,1172.863037 
	C878.189270,1185.598389 844.460327,1217.578125 827.844421,1267.719849 
	C819.516113,1292.852051 816.398438,1318.996582 813.133240,1345.071289 
	C806.629822,1397.004639 793.052917,1446.860352 769.548584,1493.727051 
	C749.802917,1533.099121 725.698059,1569.490723 693.108215,1600.616211 
M955.163452,1702.247559 
	C943.886780,1698.786377 932.373047,1695.941406 921.390076,1691.716553 
	C905.675476,1685.671753 890.292053,1678.665771 879.002747,1665.376099 
	C869.247559,1653.892334 863.407043,1640.898926 863.970764,1624.030273 
	C868.174805,1627.973633 871.527222,1631.052490 874.807983,1634.205811 
	C908.646912,1666.729858 949.471375,1684.075806 995.706970,1689.001587 
	C1028.175415,1692.460693 1060.585938,1690.423706 1092.847900,1685.792847 
	C1098.317383,1685.007812 1103.765381,1684.072632 1109.223267,1683.206909 
	C1108.244995,1681.635010 1107.281250,1681.019287 1106.251465,1680.875244 
	C1096.691406,1679.537231 1087.086304,1678.489380 1077.558350,1676.958984 
	C1053.259521,1673.055908 1028.775024,1669.945679 1004.766602,1664.684570 
	C970.097900,1657.087524 938.169800,1642.882202 910.243774,1620.403198 
	C872.401794,1589.942505 848.652222,1551.910645 845.804626,1502.359131 
	C845.321777,1493.957397 844.212769,1485.591431 843.393066,1477.208984 
	C841.604980,1478.976074 840.896729,1480.909302 840.084290,1482.797607 
	C831.023743,1503.856079 822.941040,1525.407349 812.663147,1545.854858 
	C792.719238,1585.532715 766.123291,1620.296021 731.715576,1648.784180 
	C702.052917,1673.343994 668.231323,1690.002197 631.829163,1701.839844 
	C630.253052,1702.352417 628.710205,1702.967407 627.151794,1703.534546 
	C629.480652,1705.020752 631.552307,1705.472778 633.628723,1705.495728 
	C641.459290,1705.582397 649.293884,1705.658569 657.122314,1705.503906 
	C678.343201,1705.084717 699.316589,1702.843872 719.602112,1696.178467 
	C758.875793,1683.273926 789.644226,1658.733032 812.979736,1625.232788 
	C824.917053,1608.095825 834.408875,1589.255615 845.012085,1571.188721 
	C845.856262,1569.750122 846.748047,1568.339478 847.617798,1566.915894 
	C848.086121,1567.119263 848.554443,1567.322632 849.022766,1567.526123 
	C848.042603,1583.554688 844.542847,1599.124878 839.264465,1614.302856 
	C823.645508,1659.214844 792.215576,1689.904419 751.122437,1712.231445 
	C783.218506,1712.231445 815.314575,1712.231445 848.530029,1712.231445 
	C845.463257,1710.119751 843.259094,1708.695923 841.155396,1707.136353 
	C834.324524,1702.072266 832.580811,1697.058105 836.123352,1689.388550 
	C839.290222,1682.532227 843.387634,1676.105713 847.486877,1668.749634 
	C848.991577,1670.762451 850.000610,1671.830811 850.689453,1673.076294 
	C860.371155,1690.577881 875.331238,1700.533447 894.790039,1704.202759 
	C916.118225,1708.224609 937.585754,1707.067627 959.050598,1706.051392 
	C959.684570,1706.021484 960.285278,1705.290039 961.792114,1704.301147 
	C959.256226,1703.505859 957.601196,1702.986816 955.163452,1702.247559 
M499.578705,1024.001831 
	C484.054474,1016.591980 469.978455,1007.185486 458.413116,994.185547 
	C490.604309,1003.918945 521.035217,1019.121338 555.556885,1024.218018 
	C554.598267,1022.973511 554.254089,1022.466370 553.850647,1022.011719 
	C545.244202,1012.311646 536.894043,1002.366333 527.943237,992.994751 
	C519.463684,984.116638 511.189117,974.698608 501.366425,967.510498 
	C469.119690,943.912659 432.557709,941.331482 394.505096,947.755859 
	C389.483215,948.603699 389.095367,951.833435 390.298340,955.463867 
	C394.000092,966.635498 397.023865,978.180969 402.097626,988.721130 
	C417.894836,1021.537842 443.007141,1043.458008 479.023895,1052.252075 
	C499.760681,1057.315308 520.781555,1058.513672 541.957214,1058.851074 
	C562.606506,1059.180298 583.296326,1058.924805 603.889526,1060.199707 
	C620.791382,1061.246094 636.274475,1067.307495 649.461243,1078.465698 
	C663.892578,1090.677124 671.902832,1106.708862 676.973267,1124.457520 
	C679.520264,1133.373047 684.667480,1139.325073 693.924255,1141.538452 
	C698.247192,1142.572021 699.440552,1141.699341 698.656189,1137.172852 
	C697.122253,1128.320557 695.648438,1119.455688 693.954956,1110.633545 
	C687.108643,1074.968140 666.941345,1051.289673 631.407532,1041.661621 
	C616.037048,1037.496826 600.392822,1038.469482 584.732788,1039.489868 
	C555.346436,1041.404297 526.945923,1037.554810 499.578705,1024.001831 
M503.155731,920.298645 
	C513.112183,938.403564 527.091125,952.972473 544.851746,963.082947 
	C571.280823,978.128052 598.265869,992.226624 625.319824,1006.133545 
	C643.866211,1015.667297 663.586975,1022.298950 684.074158,1026.442627 
	C686.110535,1026.854370 688.263855,1026.687256 690.362915,1026.788940 
	C689.371399,1024.925293 688.281555,1024.214966 687.096497,1023.744202 
	C658.847778,1012.522949 632.754761,997.167908 606.616394,981.886719 
	C578.279114,965.319885 556.825562,942.620667 544.378906,911.977722 
	C541.638611,905.231323 539.684326,898.165588 537.368164,891.246887 
	C537.928406,890.960510 538.488647,890.674133 539.048950,890.387756 
	C548.631226,902.035583 558.049438,913.823486 567.841980,925.291748 
	C577.617737,936.740356 587.768311,947.868835 597.754639,959.137573 
	C598.811279,956.857117 598.952393,955.401794 598.788818,953.981506 
	C597.550903,943.234802 596.361938,932.480591 594.951904,921.755798 
	C591.922668,898.715332 583.354675,878.097534 567.396057,860.948853 
	C549.486816,841.703979 526.738281,830.751404 501.927917,823.505249 
	C497.476318,822.205078 495.858429,825.037048 495.187073,828.695679 
	C493.866425,835.893005 492.349518,843.074707 491.480286,850.330688 
	C488.585785,874.492920 491.097412,897.833374 503.155731,920.298645 
M771.842468,818.690857 
	C768.990906,812.682068 766.290100,806.596008 763.260010,800.678589 
	C753.529053,781.674805 740.343384,765.717163 722.394226,753.775024 
	C702.780640,740.725647 680.605103,735.260925 657.915710,731.148560 
	C653.736206,730.391052 652.035767,732.835083 651.997375,736.578308 
	C651.878235,748.207214 650.936279,759.926270 652.012878,771.451538 
	C656.294678,817.289429 702.603027,857.431763 748.839417,855.974304 
	C750.050293,855.936157 751.241943,855.288757 752.442566,854.925476 
	C752.033203,853.776001 751.879456,852.431763 751.175049,851.507019 
	C743.607849,841.572876 736.075989,831.607483 728.290466,821.845215 
	C719.929932,811.361938 711.308960,801.086426 702.801575,790.720215 
	C704.512146,790.490540 705.695312,790.935242 706.817932,791.500366 
	C725.585632,800.947266 740.791748,814.357605 751.105103,832.748047 
	C764.778809,857.130676 771.255859,883.641724 772.977478,911.395325 
	C773.548889,920.606323 773.817017,929.836182 774.278320,940.292603 
	C776.318726,938.525146 777.632812,937.657288 778.603760,936.501221 
	C784.242920,929.787170 787.038452,921.887939 788.031189,913.271912 
	C791.814026,880.440552 785.091492,849.393677 771.842468,818.690857 
M746.628113,951.888855 
	C746.442810,950.569885 746.216919,949.255249 746.078308,947.931335 
	C744.171265,929.709900 740.044067,912.057922 730.308533,896.347839 
	C708.862061,861.740173 675.894714,848.141113 636.817627,846.197144 
	C632.755615,845.995117 630.621033,848.048096 630.812256,852.292297 
	C631.231750,861.601013 630.943665,870.995178 632.112854,880.206238 
	C635.323608,905.500977 645.970825,927.293335 664.856323,944.673279 
	C681.335693,959.838867 701.456909,966.509766 723.315369,968.752869 
	C724.255798,968.849365 725.282776,968.103149 726.269409,967.749512 
	C725.809204,966.587158 725.533630,965.303467 724.861511,964.280396 
	C711.616638,944.120667 698.319336,923.995300 685.067017,903.840454 
	C684.519165,903.007141 684.305481,901.954224 683.936157,901.003601 
	C684.338135,900.617432 684.740173,900.231323 685.142151,899.845215 
	C692.677246,905.757690 700.511047,911.331360 707.683960,917.654663 
	C721.645752,929.962891 732.784363,944.721008 743.072449,960.148315 
	C744.107056,961.699646 745.561646,962.970825 746.821289,964.372070 
	C747.166809,964.118408 747.512268,963.864746 747.857788,963.611084 
	C747.490662,959.997498 747.123596,956.383972 746.628113,951.888855 
M1151.151978,1136.776855 
	C1123.756348,1142.687988 1096.213989,1141.707764 1068.405884,1138.723999 
	C1089.083252,1149.160156 1109.727905,1159.458618 1130.953247,1168.375122 
	C1141.842896,1172.949829 1153.952148,1173.686646 1165.879150,1172.733521 
	C1193.180908,1170.551636 1215.950562,1158.759766 1234.781494,1139.275024 
	C1245.429199,1128.257324 1244.827515,1130.218750 1233.064575,1121.902222 
	C1207.314331,1103.696289 1179.114868,1094.533447 1147.384888,1101.126831 
	C1126.158325,1105.537720 1107.218872,1115.809814 1088.172852,1125.660156 
	C1088.025513,1125.736328 1088.097168,1126.236206 1088.048828,1126.712036 
	C1114.541992,1126.467407 1141.070923,1125.633789 1167.202637,1132.829956 
	C1162.122681,1134.068359 1157.042725,1135.306763 1151.151978,1136.776855 
M551.380920,1280.838623 
	C553.051514,1279.126831 554.722168,1277.415039 557.062317,1275.017212 
	C546.805908,1277.222168 537.788818,1279.466064 528.658813,1281.066040 
	C501.677429,1285.794067 477.697632,1296.072144 459.290863,1317.225830 
	C447.360809,1330.936401 439.326416,1346.603027 435.206879,1364.273071 
	C433.719330,1370.653931 434.956696,1372.449219 441.553009,1373.060913 
	C450.828033,1373.920898 460.158539,1375.321899 469.417145,1375.018921 
	C505.756348,1373.829590 533.325012,1358.156372 548.591675,1324.211060 
	C552.344299,1315.867188 554.020142,1306.589233 556.650696,1297.740601 
	C556.159241,1297.535645 555.667786,1297.330566 555.176331,1297.125488 
	C537.562317,1314.547974 518.916565,1330.368774 494.076691,1336.707886 
	C495.795898,1334.220337 497.711731,1331.966675 499.839752,1329.934937 
	C516.828735,1313.715454 533.857849,1297.537842 551.380920,1280.838623 
M1023.884033,906.427124 
	C1024.378174,918.347229 1026.541016,929.939819 1030.655151,942.394958 
	C1040.061523,919.492554 1048.072754,897.099731 1064.795410,878.494446 
	C1064.795410,880.691284 1064.928711,881.974854 1064.775635,883.223267 
	C1062.088013,905.134338 1055.136475,925.757324 1045.854004,946.056641 
	C1054.572266,941.679260 1063.192383,937.356934 1070.879272,931.754028 
	C1108.895752,904.043457 1109.831665,855.259094 1095.948120,820.224548 
	C1095.433472,818.925842 1092.083496,817.585693 1090.611816,818.045898 
	C1085.885742,819.523987 1081.324585,821.644348 1076.871338,823.861328 
	C1043.190308,840.629028 1022.227478,865.710449 1023.884033,906.427124 
M1158.232788,1357.284180 
	C1151.216309,1333.346436 1138.085205,1313.839478 1117.688232,1299.040405 
	C1098.565552,1285.165894 1062.584106,1276.888916 1048.886353,1278.970825 
	C1066.796753,1297.823975 1084.495361,1316.454224 1102.193848,1335.084473 
	C1101.844971,1335.464478 1101.495972,1335.844482 1101.146973,1336.224487 
	C1080.400024,1329.994507 1064.922241,1315.694458 1048.592041,1300.502686 
	C1049.959595,1306.475830 1050.934570,1311.173340 1052.114990,1315.818604 
	C1059.111572,1343.352417 1075.604614,1362.414917 1102.704224,1371.630493 
	C1117.903931,1376.799561 1133.557983,1375.780151 1149.199219,1373.974121 
	C1161.934692,1372.503662 1162.373657,1371.933716 1158.949463,1359.468384 
	C1158.817383,1358.987427 1158.659424,1358.513672 1158.232788,1357.284180 
M971.377319,1608.103760 
	C953.419800,1607.151245 935.462280,1606.198730 917.504761,1605.246094 
	C917.469238,1605.860596 917.433655,1606.475098 917.398132,1607.089722 
	C1013.410339,1646.632202 1112.778564,1655.908447 1215.021484,1639.595947 
	C1212.441528,1638.541382 1209.833984,1637.520386 1207.134277,1637.117432 
	C1168.794556,1631.393921 1130.532227,1625.019653 1092.067993,1620.296753 
	C1052.249512,1615.407593 1012.232056,1612.139648 971.377319,1608.103760 
M815.127991,695.378906 
	C813.113647,693.388245 810.995911,691.490112 809.110291,689.384216 
	C806.597412,686.578003 804.314453,686.794617 802.093689,689.595093 
	C796.311768,696.886414 789.872314,703.766846 784.921448,711.587402 
	C764.370056,744.050964 768.525330,784.009705 794.916077,811.854065 
	C795.969971,812.966003 797.597412,813.534302 799.019836,814.393372 
	C799.019836,806.278137 798.768005,798.975037 799.091431,791.697388 
	C799.408875,784.556702 800.049744,777.405823 801.030396,770.326111 
	C802.006042,763.283264 803.580933,756.323425 804.892944,749.327209 
	C813.395447,770.479004 812.643066,792.434326 813.185425,814.686462 
	C815.958862,812.978088 817.965088,811.009705 819.745850,808.854858 
	C835.224731,790.125610 842.528137,768.935730 839.237305,744.480408 
	C836.704041,725.654114 828.159973,709.818970 815.127991,695.378906 
M404.192413,1281.734497 
	C422.653412,1269.406738 430.823730,1250.870972 435.211182,1230.103760 
	C435.432465,1229.056274 434.903870,1227.516724 434.164612,1226.737793 
	C433.781982,1226.334717 432.049591,1226.876221 431.130402,1227.369751 
	C418.540192,1234.129761 406.036591,1241.052856 393.393005,1247.710449 
	C389.222290,1249.906738 384.712646,1251.459595 380.357941,1253.306519 
	C393.591492,1228.667847 415.379944,1214.691406 440.708588,1203.475830 
	C437.844482,1202.634033 436.171844,1201.894775 434.432770,1201.670166 
	C419.421143,1199.731934 404.716736,1201.370239 390.899780,1207.428345 
	C358.857422,1221.477295 344.629608,1248.512573 339.182831,1281.194092 
	C337.318146,1292.382324 338.145172,1292.520386 349.438263,1293.267578 
	C350.601776,1293.344604 351.761444,1293.495361 352.925690,1293.542725 
	C370.832458,1294.270752 388.228699,1292.726807 404.192413,1281.734497 
M944.251038,1306.875854 
	C953.094360,1305.320923 959.315247,1300.141602 963.622314,1292.537598 
	C969.997375,1281.282349 964.395935,1266.156494 952.260620,1262.868042 
	C949.369568,1262.084595 945.430542,1263.174438 942.616943,1264.639038 
	C939.575378,1266.222046 938.870911,1268.903687 942.639160,1271.532715 
	C947.123047,1274.661011 947.655151,1279.646484 944.556030,1283.699951 
	C941.498474,1287.699219 936.721619,1288.017700 932.230225,1284.521851 
	C925.736755,1279.467651 925.349670,1269.915771 931.764099,1262.800537 
	C939.624756,1254.081177 949.863525,1251.234741 961.207153,1252.496704 
	C987.655090,1255.438843 1010.284546,1276.595947 1015.023132,1302.836060 
	C1016.129700,1308.963623 1016.322327,1315.256104 1016.973389,1321.857178 
	C1025.618286,1315.700073 1029.511841,1307.657715 1029.066895,1297.380005 
	C1027.131470,1252.674072 988.505249,1223.081421 949.316040,1230.078247 
	C931.815491,1233.202881 917.997253,1241.856567 910.325928,1258.624023 
	C899.650818,1281.957275 918.246277,1311.782349 944.251038,1306.875854 
M610.968079,1241.454712 
	C595.308105,1253.137207 585.752319,1268.603882 582.222656,1287.809692 
	C580.361450,1297.936768 580.903259,1307.754272 586.451782,1316.742920 
	C587.276367,1318.078613 589.243164,1318.709229 590.681641,1319.666016 
	C591.431030,1318.175537 592.867004,1316.664307 592.822693,1315.197876 
	C592.415894,1301.747314 597.228699,1290.003174 604.832153,1279.399170 
	C617.619690,1261.565552 634.271484,1250.538818 657.207947,1252.270508 
	C667.011475,1253.010742 675.116272,1257.485474 680.459656,1265.927002 
	C685.442139,1273.798584 682.419983,1283.579956 674.237000,1286.091553 
	C672.243408,1286.703369 669.194458,1286.173218 667.481384,1284.963501 
	C662.658203,1281.557739 662.455811,1276.631226 666.302307,1271.621094 
	C670.251587,1266.477051 669.515137,1264.399048 663.292969,1262.585205 
	C658.231018,1261.109741 654.063599,1262.665283 650.578613,1266.238037 
	C644.203369,1272.773926 642.162476,1280.587158 645.116333,1289.223877 
	C648.434265,1298.924805 655.197998,1305.342773 665.475220,1307.000854 
	C684.076111,1310.002197 702.264771,1293.939697 702.969849,1274.246460 
	C703.548157,1258.093506 692.525513,1240.494385 676.006348,1233.816650 
	C653.488892,1224.714111 631.728577,1226.936646 610.968079,1241.454712 
M444.139862,1646.214722 
	C507.518127,1649.529907 569.344177,1641.607056 629.278748,1620.372681 
	C641.703979,1615.970459 653.900940,1610.924072 666.203125,1606.174561 
	C666.075989,1605.756592 665.948853,1605.338501 665.821777,1604.920532 
	C569.857300,1608.894409 475.351501,1625.001709 380.587982,1638.964966 
	C380.590546,1639.451416 380.593109,1639.937866 380.595673,1640.424316 
	C401.464722,1642.335327 422.333801,1644.246338 444.139862,1646.214722 
M624.427795,960.008484 
	C642.945374,995.960876 685.821411,1014.069702 721.830811,1011.569214 
	C728.933838,1011.075989 732.984314,1009.019836 735.713623,1001.819763 
	C738.480347,994.521057 743.753845,988.172607 748.000000,981.293701 
	C745.888245,981.725281 743.647461,982.154907 741.419678,982.643250 
	C726.569580,985.898621 711.685425,988.513855 696.430420,985.528076 
	C659.399231,978.280151 632.936707,950.854004 626.982849,913.606995 
	C626.734131,912.051331 625.888916,910.591064 625.321533,909.086304 
	C624.776428,909.189880 624.231323,909.293457 623.686157,909.396973 
	C615.978088,925.981323 615.929199,942.629639 624.427795,960.008484 
M1243.964600,1271.566406 
	C1234.659058,1255.018066 1220.333740,1245.325928 1202.020874,1241.463135 
	C1190.907959,1239.119141 1179.505981,1237.849731 1170.175659,1230.081177 
	C1176.442383,1244.894165 1182.392212,1259.658936 1189.795410,1273.655029 
	C1196.489258,1286.309814 1207.640259,1294.023193 1222.398315,1293.989136 
	C1230.757324,1293.969849 1239.120239,1292.039917 1247.463989,1290.848755 
	C1250.810669,1290.371094 1250.732422,1287.868042 1249.841797,1285.528198 
	C1248.133423,1281.040283 1246.158325,1276.653809 1243.964600,1271.566406 
M366.024323,1138.415527 
	C363.532349,1139.341797 361.047668,1140.288330 358.546539,1141.189209 
	C355.814423,1142.172974 354.926819,1144.084961 356.011780,1146.695557 
	C362.314178,1161.859619 374.077576,1177.353394 394.474945,1178.864990 
	C406.680054,1179.769531 419.006927,1179.030884 431.210632,1179.030884 
	C426.589844,1170.879150 422.251373,1162.689941 417.405853,1154.812622 
	C411.338959,1144.949341 402.979309,1137.834717 391.286469,1135.486572 
	C382.867676,1133.795898 374.745270,1135.433716 366.024323,1138.415527 
M591.462463,799.975891 
	C600.415527,811.593933 614.079407,814.481567 626.887817,818.859741 
	C627.567444,819.092102 629.823669,817.154785 629.985657,816.031311 
	C630.648193,811.435913 630.747498,806.761658 631.117065,802.121460 
	C632.936890,779.272095 617.358887,762.755188 593.317810,759.938232 
	C588.920166,759.422974 586.173340,761.299255 585.392395,765.573730 
	C583.212708,777.503113 583.401245,789.091431 591.462463,799.975891 
M1020.814758,763.590271 
	C990.866943,761.583435 969.989502,789.825256 979.406799,819.604553 
	C986.641602,819.187927 1006.489502,811.992554 1011.756042,807.877136 
	C1023.599426,798.622131 1028.591675,776.214355 1020.814758,763.590271 
M610.006836,1383.425537 
	C610.572693,1381.340942 611.187012,1379.268188 611.696533,1377.169922 
	C615.202271,1362.732910 611.624695,1350.417847 600.202637,1340.800781 
	C595.126160,1336.526611 589.532593,1332.864868 584.155579,1328.950073 
	C581.622925,1327.106079 579.927124,1327.742554 578.877686,1330.697144 
	C577.321716,1335.078125 575.408691,1339.343750 574.050354,1343.781738 
	C567.728333,1364.435913 579.035400,1384.429565 599.921814,1389.753052 
	C606.945190,1391.543213 607.576050,1391.190552 610.006836,1383.425537 
M1017.054382,1381.571899 
	C1023.878296,1376.060669 1027.781982,1368.977295 1028.412842,1360.195801 
	C1029.141846,1350.043579 1025.730103,1340.898560 1021.328308,1332.031372 
	C1019.861145,1329.076050 1017.422058,1329.148193 1015.005432,1330.607178 
	C1011.452087,1332.752319 1007.925537,1334.973633 1004.578979,1337.423950 
	C986.943848,1350.335815 982.781433,1369.999634 993.776245,1389.001465 
	C994.468567,1390.198120 997.219788,1391.445679 998.277588,1390.984009 
	C1004.474487,1388.279663 1010.452393,1385.073486 1017.054382,1381.571899 
M1156.327515,1077.148804 
	C1174.545044,1080.726562 1190.840820,1073.841553 1200.111206,1058.650024 
	C1207.885742,1045.909668 1207.513794,1044.925415 1193.264160,1040.531006 
	C1176.680176,1035.416748 1163.026367,1040.104370 1153.244995,1054.510010 
	C1149.605225,1059.870361 1146.331543,1065.481567 1142.972900,1071.027954 
	C1142.428955,1071.926514 1142.312988,1073.084229 1141.813232,1074.736450 
	C1146.663208,1075.560547 1151.050659,1076.305908 1156.327515,1077.148804 
M450.182739,882.174011 
	C447.191162,882.124695 444.131104,881.682007 441.235840,882.186096 
	C439.707336,882.452209 437.355194,884.289917 437.265930,885.551880 
	C436.296356,899.257935 438.907745,911.875916 450.612488,920.705505 
	C458.615082,926.742310 468.242554,929.008789 477.851624,931.060242 
	C480.769470,931.683167 482.293030,930.412292 482.210815,927.354431 
	C482.085785,922.703308 482.341034,918.009460 481.802856,913.407654 
	C479.668396,895.156128 469.108490,884.565430 450.182739,882.174011 
M1158.325684,886.972290 
	C1157.979980,882.350281 1157.958740,877.666077 1157.092651,873.143799 
	C1156.830444,871.774841 1154.167969,869.802368 1152.709717,869.888123 
	C1135.756226,870.885254 1118.544434,879.354309 1116.430786,901.834412 
	C1115.922485,907.241028 1116.657715,912.780579 1117.013062,918.246460 
	C1117.223145,921.475769 1119.318237,922.668579 1122.244507,921.629639 
	C1128.326538,919.470398 1134.578125,917.572876 1140.301025,914.664673 
	C1151.134033,909.159729 1157.346802,900.166138 1158.325684,886.972290 
M621.367249,1117.874023 
	C627.353882,1116.968262 633.340576,1116.062622 639.588928,1115.117432 
	C636.025085,1111.202271 632.466187,1107.109009 628.712891,1103.202393 
	C614.978516,1088.906982 600.135925,1087.241333 583.365112,1097.746216 
	C580.163452,1099.751709 579.868347,1101.437256 581.891663,1104.485352 
	C590.243408,1117.066650 604.201416,1122.040161 621.367249,1117.874023 
M1203.321655,948.914612 
	C1200.100342,949.685059 1196.789795,950.197693 1193.675537,951.276978 
	C1185.946777,953.955505 1179.424805,958.494263 1177.584717,966.835266 
	C1176.285889,972.722961 1176.521484,978.977295 1176.363647,985.075500 
	C1176.295654,987.699707 1178.060547,989.077515 1180.716431,988.323730 
	C1186.117188,986.790955 1191.741943,985.667542 1196.781494,983.318176 
	C1209.021362,977.612061 1213.707642,968.423767 1212.075195,955.038147 
	C1211.322266,948.865662 1210.231079,948.013184 1203.321655,948.914612 
M1216.774292,1225.246094 
	C1223.282837,1223.141479 1229.791260,1221.036743 1236.489380,1218.870728 
	C1226.671265,1200.332153 1201.758545,1195.432983 1186.919678,1208.479370 
	C1194.760498,1217.360962 1202.069458,1226.822266 1216.774292,1225.246094 
M837.679260,1067.276001 
	C829.593567,1077.481079 833.703003,1088.728271 834.885986,1100.392090 
	C840.437439,1096.844849 846.047729,1093.936768 850.855286,1090.038696 
	C859.329529,1083.167603 860.946716,1073.238892 855.940857,1063.557129 
	C852.665466,1057.222290 850.836487,1056.691284 844.864563,1060.838257 
	C842.429871,1062.528931 840.338684,1064.714355 837.679260,1067.276001 
z"/>
<path fill="#174A34" opacity="1.000000" stroke="none" 
	d="
M910.482178,1097.537354 
	C941.298889,1088.062256 973.579407,1083.613037 1003.458435,1070.987915 
	C1040.434570,1055.363892 1068.063354,1029.349243 1087.072144,994.079956 
	C1087.528564,993.232971 1087.858643,992.317932 1088.247559,991.434570 
	C1087.918945,991.065063 1087.590332,990.695496 1087.261719,990.325928 
	C1080.531006,995.937622 1073.648315,1001.379089 1067.112183,1007.208862 
	C1060.554077,1013.058105 1054.341187,1019.294373 1047.117065,1026.180786 
	C1047.667847,1012.301086 1049.572876,999.902954 1055.120728,988.193237 
	C1067.143677,962.816284 1088.430542,949.709412 1114.639771,943.105896 
	C1118.508667,942.131104 1122.471680,941.531677 1126.342285,940.562805 
	C1130.353271,939.558655 1132.496582,941.132874 1132.932495,945.060486 
	C1136.658081,978.620605 1128.472900,1007.136780 1099.968628,1028.302979 
	C1076.707397,1045.575928 1054.424561,1064.163818 1031.618530,1082.054810 
	C1026.799438,1085.835327 1021.592224,1089.120972 1016.911133,1092.391968 
	C1032.017212,1096.506104 1069.645142,1087.825928 1090.373779,1075.208374 
	C1112.692749,1061.622681 1130.665161,1043.206909 1148.585205,1023.840515 
	C1148.486084,1025.476562 1148.753906,1027.240723 1148.234497,1028.730225 
	C1130.494507,1079.598877 1096.238647,1112.059570 1042.422852,1121.219116 
	C1026.611938,1123.910034 1010.217407,1123.219849 994.085022,1123.963745 
	C968.377808,1125.149170 943.093506,1128.479492 918.559204,1136.812744 
	C872.832642,1152.344238 841.240906,1183.104492 820.897461,1226.253540 
	C806.152283,1257.528320 797.941040,1290.745605 792.056763,1324.591431 
	C785.729675,1360.984375 780.088013,1397.517578 768.898926,1432.847900 
	C765.187500,1444.566772 760.775757,1456.066528 756.557617,1467.620239 
	C755.731506,1469.882935 754.322327,1471.932861 752.256042,1473.765381 
	C752.837402,1467.790283 753.948853,1461.812378 753.916748,1455.840576 
	C753.642822,1404.853882 753.364685,1353.865601 752.635620,1302.884155 
	C752.367493,1284.135254 749.043335,1265.789429 741.225830,1248.514404 
	C729.467102,1222.530518 709.869751,1204.606689 683.961853,1193.369019 
	C659.354370,1182.695312 633.672363,1176.700562 606.748230,1178.206543 
	C575.523682,1179.953003 546.604614,1189.073853 521.224060,1207.840576 
	C513.839783,1213.300659 508.288239,1220.548706 504.028473,1228.950928 
	C534.919617,1215.296753 564.248413,1197.703613 598.670288,1193.625977 
	C598.701111,1194.313599 598.859436,1194.759155 598.708801,1194.926636 
	C586.344666,1208.675781 574.329346,1222.764038 561.482544,1236.047974 
	C542.177063,1256.010498 517.565674,1265.617798 490.665253,1269.889893 
	C479.167450,1271.715576 467.563080,1272.968262 455.966370,1274.040283 
	C447.440491,1274.828613 446.149933,1273.213013 447.203094,1264.928223 
	C453.806366,1212.983521 483.652191,1179.275635 530.454834,1158.891968 
	C532.366821,1158.059326 534.335449,1157.356689 537.052124,1156.289185 
	C524.195801,1151.605957 511.806427,1148.850586 498.848450,1148.829712 
	C486.688690,1148.810181 474.456818,1149.525269 462.383759,1148.467163 
	C433.118988,1145.902466 409.591919,1131.201904 389.100677,1111.217896 
	C381.972717,1104.266479 375.902344,1096.230225 369.354462,1088.684814 
	C367.197357,1086.198975 367.036682,1083.871216 370.166412,1082.102905 
	C408.223755,1060.601440 447.438385,1053.450562 488.187408,1074.038330 
	C496.973785,1078.477539 504.945923,1084.894775 512.487122,1091.343384 
	C522.952881,1100.292725 532.656982,1110.132446 543.331299,1120.198486 
	C512.172180,1114.754639 481.636322,1109.419800 451.100494,1104.084839 
	C450.864502,1104.663208 450.628510,1105.241699 450.392517,1105.820068 
	C452.018524,1106.898071 453.593872,1108.063599 455.278259,1109.041016 
	C476.700043,1121.473145 499.896240,1128.808228 524.192505,1132.973145 
	C555.378479,1138.319092 586.979980,1137.166504 618.390808,1138.986938 
	C650.863647,1140.869019 682.024719,1147.272583 710.202148,1164.612183 
	C733.943359,1179.221802 751.662598,1199.342896 765.008850,1223.572754 
	C766.998474,1227.184937 769.009949,1230.785034 771.567078,1235.392090 
	C773.905884,1230.389282 775.960571,1226.455566 777.624695,1222.362915 
	C793.713318,1182.793945 818.485291,1149.656006 851.663574,1122.861816 
	C882.508301,1097.952393 901.629333,1065.965576 911.099304,1027.665405 
	C917.393921,1002.207153 928.687378,979.203735 947.865784,960.722656 
	C962.560059,946.562500 980.016052,936.593384 998.374146,928.060608 
	C1001.243347,926.726990 1003.642639,927.091125 1004.840759,930.343628 
	C1014.929871,957.733154 1020.704834,985.537231 1010.798279,1014.243103 
	C999.019409,1048.374390 974.117981,1067.881714 939.807800,1076.482422 
	C939.696655,1076.510254 939.530334,1076.317871 939.054199,1076.014648 
	C951.045410,1051.423462 961.390930,1026.134644 968.050537,999.484558 
	C967.606201,999.160339 967.161926,998.836121 966.717590,998.511902 
	C960.539124,1006.368103 953.392822,1013.657593 948.390015,1022.202148 
	C938.909058,1038.395264 930.602966,1055.279907 921.918335,1071.934326 
	C917.767090,1079.895264 913.866699,1087.986816 909.569946,1096.514404 
	C909.685486,1097.185547 910.083862,1097.361450 910.482178,1097.537354 
z"/>
<path fill="#174A34" opacity="1.000000" stroke="none" 
	d="
M693.367310,1600.373657 
	C725.698059,1569.490723 749.802917,1533.099121 769.548584,1493.727051 
	C793.052917,1446.860352 806.629822,1397.004639 813.133240,1345.071289 
	C816.398438,1318.996582 819.516113,1292.852051 827.844421,1267.719849 
	C844.460327,1217.578125 878.189270,1185.598389 929.521973,1172.863037 
	C976.263123,1161.266602 1023.745056,1158.461914 1070.479370,1170.411255 
	C1119.291992,1182.892090 1149.969727,1215.558472 1162.413574,1264.716675 
	C1163.709229,1269.835327 1162.628418,1271.589111 1157.724243,1271.728027 
	C1132.756104,1272.435669 1107.721191,1273.722534 1083.519775,1265.314209 
	C1065.605469,1259.089966 1050.365356,1248.499023 1035.992798,1236.473022 
	C1023.963684,1226.407837 1011.769165,1216.500732 997.011230,1210.683838 
	C940.301758,1188.331787 869.802368,1212.552246 854.302124,1286.764282 
	C850.888672,1303.107300 849.926941,1320.086792 849.174500,1336.833252 
	C847.948486,1364.122070 848.328125,1391.579102 841.938293,1418.310425 
	C823.186340,1496.756714 786.525879,1565.393677 727.385559,1620.870605 
	C687.126953,1658.635498 639.317261,1681.179688 584.046509,1687.179321 
	C557.396545,1690.072144 530.824707,1689.186768 504.246552,1686.573608 
	C497.289703,1685.889648 490.351227,1685.008911 483.414246,1684.139160 
	C481.840393,1683.941772 480.307831,1683.415039 478.756256,1683.039917 
	C478.718628,1682.533691 478.680969,1682.027466 478.643341,1681.521240 
	C485.015717,1680.324219 491.350739,1678.853394 497.766937,1677.977295 
	C526.292664,1674.082520 554.785889,1670.212769 582.600891,1662.310425 
	C624.354187,1650.447754 661.316101,1630.215698 693.367310,1600.373657 
M1089.459717,1223.035156 
	C1069.789185,1204.675781 1027.977295,1187.092041 1009.947205,1189.753174 
	C1037.233765,1205.812256 1063.773438,1222.921387 1094.886963,1230.228638 
	C1095.326416,1229.643555 1095.765869,1229.058594 1096.205322,1228.473511 
	C1094.124268,1226.825195 1092.043335,1225.176880 1089.459717,1223.035156 
z"/>
<path fill="#174A34" opacity="1.000000" stroke="none" 
	d="
M906.728027,779.728882 
	C891.254272,791.086914 878.983582,805.541077 867.432251,820.648987 
	C861.063721,828.978455 855.020203,837.556335 848.219177,846.857666 
	C848.219177,837.924133 847.698242,829.748169 848.313477,821.658569 
	C850.454407,793.507935 860.029419,768.505249 880.748779,748.547241 
	C893.705994,736.066162 909.241150,727.916138 926.062439,722.030151 
	C932.338806,719.834045 938.682190,717.822693 945.031006,715.842468 
	C950.048157,714.277527 952.370667,715.311584 953.602722,720.319824 
	C962.469666,756.363525 958.056702,790.002747 933.272644,818.826050 
	C924.899536,828.563904 914.531982,836.785889 904.284729,844.672729 
	C881.129578,862.494202 865.466675,886.009399 851.699097,911.140259 
	C849.440186,915.263672 851.587646,916.902832 855.205750,917.872375 
	C868.253235,921.368896 879.630920,927.650635 888.076843,938.401917 
	C908.045959,963.821777 914.397034,1010.255920 873.569092,1036.624023 
	C857.100464,1047.260132 839.626709,1046.843994 821.927185,1039.896973 
	C820.924255,1039.503296 820.360901,1037.989502 819.156555,1036.432983 
	C832.210938,1034.414429 843.941895,1031.641113 854.687988,1025.541748 
	C875.841125,1013.535583 885.449097,990.007874 877.968201,968.046631 
	C868.808167,941.156250 837.281860,934.397400 817.729492,954.987305 
	C801.310608,972.277527 795.416504,993.515259 794.052124,1016.509644 
	C792.592834,1041.102905 797.803711,1064.856079 803.433289,1088.537842 
	C806.452637,1101.239014 808.858826,1113.984863 805.910828,1127.040527 
	C805.218933,1130.104736 804.180969,1133.133057 802.936951,1136.020508 
	C800.987854,1140.544434 799.254150,1140.782593 795.579407,1137.399658 
	C781.987427,1124.887207 774.084900,1109.124634 770.117798,1091.383545 
	C767.871704,1081.339111 766.658813,1071.063721 764.971252,1060.893921 
	C764.766968,1059.662842 764.504700,1058.441406 764.269287,1057.215576 
	C763.814331,1057.173950 763.359314,1057.132324 762.904358,1057.090820 
	C761.643921,1063.479492 759.730591,1069.818115 759.237244,1076.265503 
	C757.220581,1102.620728 763.736511,1126.435425 781.575806,1146.541138 
	C783.556885,1148.773804 785.745972,1150.867432 788.068726,1152.739868 
	C790.910828,1155.030884 790.620239,1157.293335 788.944641,1160.124390 
	C783.607788,1169.141846 778.327576,1178.195801 773.219177,1187.343994 
	C771.089844,1191.157349 769.262146,1190.557983 766.933044,1187.675171 
	C750.508423,1167.345581 738.266602,1144.918579 732.050964,1119.350464 
	C721.915039,1077.656128 730.872620,1039.255737 751.613037,1002.741516 
	C766.580322,976.391357 786.140076,953.444702 804.654541,929.663269 
	C832.878357,893.410461 860.360657,856.578735 888.021545,819.890137 
	C896.819214,808.221191 902.261230,794.760742 907.682373,780.616211 
	C907.847839,779.735291 907.782898,779.462769 907.717957,779.190186 
	C907.388000,779.369812 907.058044,779.549377 906.728027,779.728882 
z"/>
<path fill="#184A34" opacity="1.000000" stroke="none" 
	d="
M955.554810,1702.357666 
	C957.601196,1702.986816 959.256226,1703.505859 961.792114,1704.301147 
	C960.285278,1705.290039 959.684570,1706.021484 959.050598,1706.051392 
	C937.585754,1707.067627 916.118225,1708.224609 894.790039,1704.202759 
	C875.331238,1700.533447 860.371155,1690.577881 850.689453,1673.076294 
	C850.000610,1671.830811 848.991577,1670.762451 847.486877,1668.749634 
	C843.387634,1676.105713 839.290222,1682.532227 836.123352,1689.388550 
	C832.580811,1697.058105 834.324524,1702.072266 841.155396,1707.136353 
	C843.259094,1708.695923 845.463257,1710.119751 848.530029,1712.231445 
	C815.314575,1712.231445 783.218506,1712.231445 751.122437,1712.231445 
	C792.215576,1689.904419 823.645508,1659.214844 839.264465,1614.302856 
	C844.542847,1599.124878 848.042603,1583.554688 849.022766,1567.526123 
	C848.554443,1567.322632 848.086121,1567.119263 847.617798,1566.915894 
	C846.748047,1568.339478 845.856262,1569.750122 845.012085,1571.188721 
	C834.408875,1589.255615 824.917053,1608.095825 812.979736,1625.232788 
	C789.644226,1658.733032 758.875793,1683.273926 719.602112,1696.178467 
	C699.316589,1702.843872 678.343201,1705.084717 657.122314,1705.503906 
	C649.293884,1705.658569 641.459290,1705.582397 633.628723,1705.495728 
	C631.552307,1705.472778 629.480652,1705.020752 627.151794,1703.534546 
	C628.710205,1702.967407 630.253052,1702.352417 631.829163,1701.839844 
	C668.231323,1690.002197 702.052917,1673.343994 731.715576,1648.784180 
	C766.123291,1620.296021 792.719238,1585.532715 812.663147,1545.854858 
	C822.941040,1525.407349 831.023743,1503.856079 840.084290,1482.797607 
	C840.896729,1480.909302 841.604980,1478.976074 843.393066,1477.208984 
	C844.212769,1485.591431 845.321777,1493.957397 845.804626,1502.359131 
	C848.652222,1551.910645 872.401794,1589.942505 910.243774,1620.403198 
	C938.169800,1642.882202 970.097900,1657.087524 1004.766602,1664.684570 
	C1028.775024,1669.945679 1053.259521,1673.055908 1077.558350,1676.958984 
	C1087.086304,1678.489380 1096.691406,1679.537231 1106.251465,1680.875244 
	C1107.281250,1681.019287 1108.244995,1681.635010 1109.223267,1683.206909 
	C1103.765381,1684.072632 1098.317383,1685.007812 1092.847900,1685.792847 
	C1060.585938,1690.423706 1028.175415,1692.460693 995.706970,1689.001587 
	C949.471375,1684.075806 908.646912,1666.729858 874.807983,1634.205811 
	C871.527222,1631.052490 868.174805,1627.973633 863.970764,1624.030273 
	C863.407043,1640.898926 869.247559,1653.892334 879.002747,1665.376099 
	C890.292053,1678.665771 905.675476,1685.671753 921.390076,1691.716553 
	C932.373047,1695.941406 943.886780,1698.786377 955.554810,1702.357666 
z"/>
<path fill="#184A34" opacity="1.000000" stroke="none" 
	d="
M499.919373,1024.155151 
	C526.945923,1037.554810 555.346436,1041.404297 584.732788,1039.489868 
	C600.392822,1038.469482 616.037048,1037.496826 631.407532,1041.661621 
	C666.941345,1051.289673 687.108643,1074.968140 693.954956,1110.633545 
	C695.648438,1119.455688 697.122253,1128.320557 698.656189,1137.172852 
	C699.440552,1141.699341 698.247192,1142.572021 693.924255,1141.538452 
	C684.667480,1139.325073 679.520264,1133.373047 676.973267,1124.457520 
	C671.902832,1106.708862 663.892578,1090.677124 649.461243,1078.465698 
	C636.274475,1067.307495 620.791382,1061.246094 603.889526,1060.199707 
	C583.296326,1058.924805 562.606506,1059.180298 541.957214,1058.851074 
	C520.781555,1058.513672 499.760681,1057.315308 479.023895,1052.252075 
	C443.007141,1043.458008 417.894836,1021.537842 402.097626,988.721130 
	C397.023865,978.180969 394.000092,966.635498 390.298340,955.463867 
	C389.095367,951.833435 389.483215,948.603699 394.505096,947.755859 
	C432.557709,941.331482 469.119690,943.912659 501.366425,967.510498 
	C511.189117,974.698608 519.463684,984.116638 527.943237,992.994751 
	C536.894043,1002.366333 545.244202,1012.311646 553.850647,1022.011719 
	C554.254089,1022.466370 554.598267,1022.973511 555.556885,1024.218018 
	C521.035217,1019.121338 490.604309,1003.918945 458.413116,994.185547 
	C469.978455,1007.185486 484.054474,1016.591980 499.919373,1024.155151 
z"/>
<path fill="#184A34" opacity="1.000000" stroke="none" 
	d="
M503.013367,919.957397 
	C491.097412,897.833374 488.585785,874.492920 491.480286,850.330688 
	C492.349518,843.074707 493.866425,835.893005 495.187073,828.695679 
	C495.858429,825.037048 497.476318,822.205078 501.927917,823.505249 
	C526.738281,830.751404 549.486816,841.703979 567.396057,860.948853 
	C583.354675,878.097534 591.922668,898.715332 594.951904,921.755798 
	C596.361938,932.480591 597.550903,943.234802 598.788818,953.981506 
	C598.952393,955.401794 598.811279,956.857117 597.754639,959.137573 
	C587.768311,947.868835 577.617737,936.740356 567.841980,925.291748 
	C558.049438,913.823486 548.631226,902.035583 539.048950,890.387756 
	C538.488647,890.674133 537.928406,890.960510 537.368164,891.246887 
	C539.684326,898.165588 541.638611,905.231323 544.378906,911.977722 
	C556.825562,942.620667 578.279114,965.319885 606.616394,981.886719 
	C632.754761,997.167908 658.847778,1012.522949 687.096497,1023.744202 
	C688.281555,1024.214966 689.371399,1024.925293 690.362915,1026.788940 
	C688.263855,1026.687256 686.110535,1026.854370 684.074158,1026.442627 
	C663.586975,1022.298950 643.866211,1015.667297 625.319824,1006.133545 
	C598.265869,992.226624 571.280823,978.128052 544.851746,963.082947 
	C527.091125,952.972473 513.112183,938.403564 503.013367,919.957397 
M537.507935,889.843567 
	C537.507935,889.843567 537.635376,889.504578 537.635376,889.504578 
	C537.635376,889.504578 537.315979,889.598694 537.507935,889.843567 
z"/>
<path fill="#174A34" opacity="1.000000" stroke="none" 
	d="
M771.964844,819.052429 
	C785.091492,849.393677 791.814026,880.440552 788.031189,913.271912 
	C787.038452,921.887939 784.242920,929.787170 778.603760,936.501221 
	C777.632812,937.657288 776.318726,938.525146 774.278320,940.292603 
	C773.817017,929.836182 773.548889,920.606323 772.977478,911.395325 
	C771.255859,883.641724 764.778809,857.130676 751.105103,832.748047 
	C740.791748,814.357605 725.585632,800.947266 706.817932,791.500366 
	C705.695312,790.935242 704.512146,790.490540 702.801575,790.720215 
	C711.308960,801.086426 719.929932,811.361938 728.290466,821.845215 
	C736.075989,831.607483 743.607849,841.572876 751.175049,851.507019 
	C751.879456,852.431763 752.033203,853.776001 752.442566,854.925476 
	C751.241943,855.288757 750.050293,855.936157 748.839417,855.974304 
	C702.603027,857.431763 656.294678,817.289429 652.012878,771.451538 
	C650.936279,759.926270 651.878235,748.207214 651.997375,736.578308 
	C652.035767,732.835083 653.736206,730.391052 657.915710,731.148560 
	C680.605103,735.260925 702.780640,740.725647 722.394226,753.775024 
	C740.343384,765.717163 753.529053,781.674805 763.260010,800.678589 
	C766.290100,806.596008 768.990906,812.682068 771.964844,819.052429 
z"/>
<path fill="#174A34" opacity="1.000000" stroke="none" 
	d="
M746.692261,952.329651 
	C747.123596,956.383972 747.490662,959.997498 747.857788,963.611084 
	C747.512268,963.864746 747.166809,964.118408 746.821289,964.372070 
	C745.561646,962.970825 744.107056,961.699646 743.072449,960.148315 
	C732.784363,944.721008 721.645752,929.962891 707.683960,917.654663 
	C700.511047,911.331360 692.677246,905.757690 685.142151,899.845215 
	C684.740173,900.231323 684.338135,900.617432 683.936157,901.003601 
	C684.305481,901.954224 684.519165,903.007141 685.067017,903.840454 
	C698.319336,923.995300 711.616638,944.120667 724.861511,964.280396 
	C725.533630,965.303467 725.809204,966.587158 726.269409,967.749512 
	C725.282776,968.103149 724.255798,968.849365 723.315369,968.752869 
	C701.456909,966.509766 681.335693,959.838867 664.856323,944.673279 
	C645.970825,927.293335 635.323608,905.500977 632.112854,880.206238 
	C630.943665,870.995178 631.231750,861.601013 630.812256,852.292297 
	C630.621033,848.048096 632.755615,845.995117 636.817627,846.197144 
	C675.894714,848.141113 708.862061,861.740173 730.308533,896.347839 
	C740.044067,912.057922 744.171265,929.709900 746.078308,947.931335 
	C746.216919,949.255249 746.442810,950.569885 746.692261,952.329651 
z"/>
<path fill="#184A34" opacity="1.000000" stroke="none" 
	d="
M1151.557373,1136.661011 
	C1157.042725,1135.306763 1162.122681,1134.068359 1167.202637,1132.829956 
	C1141.070923,1125.633789 1114.541992,1126.467407 1088.048828,1126.712036 
	C1088.097168,1126.236206 1088.025513,1125.736328 1088.172852,1125.660156 
	C1107.218872,1115.809814 1126.158325,1105.537720 1147.384888,1101.126831 
	C1179.114868,1094.533447 1207.314331,1103.696289 1233.064575,1121.902222 
	C1244.827515,1130.218750 1245.429199,1128.257324 1234.781494,1139.275024 
	C1215.950562,1158.759766 1193.180908,1170.551636 1165.879150,1172.733521 
	C1153.952148,1173.686646 1141.842896,1172.949829 1130.953247,1168.375122 
	C1109.727905,1159.458618 1089.083252,1149.160156 1068.405884,1138.723999 
	C1096.213989,1141.707764 1123.756348,1142.687988 1151.557373,1136.661011 
z"/>
<path fill="#184A34" opacity="1.000000" stroke="none" 
	d="
M551.127808,1281.093018 
	C533.857849,1297.537842 516.828735,1313.715454 499.839752,1329.934937 
	C497.711731,1331.966675 495.795898,1334.220337 494.076691,1336.707886 
	C518.916565,1330.368774 537.562317,1314.547974 555.176331,1297.125488 
	C555.667786,1297.330566 556.159241,1297.535645 556.650696,1297.740601 
	C554.020142,1306.589233 552.344299,1315.867188 548.591675,1324.211060 
	C533.325012,1358.156372 505.756348,1373.829590 469.417145,1375.018921 
	C460.158539,1375.321899 450.828033,1373.920898 441.553009,1373.060913 
	C434.956696,1372.449219 433.719330,1370.653931 435.206879,1364.273071 
	C439.326416,1346.603027 447.360809,1330.936401 459.290863,1317.225830 
	C477.697632,1296.072144 501.677429,1285.794067 528.658813,1281.066040 
	C537.788818,1279.466064 546.805908,1277.222168 557.062317,1275.017212 
	C554.722168,1277.415039 553.051514,1279.126831 551.127808,1281.093018 
z"/>
<path fill="#174A34" opacity="1.000000" stroke="none" 
	d="
M1023.873047,905.937073 
	C1022.227478,865.710449 1043.190308,840.629028 1076.871338,823.861328 
	C1081.324585,821.644348 1085.885742,819.523987 1090.611816,818.045898 
	C1092.083496,817.585693 1095.433472,818.925842 1095.948120,820.224548 
	C1109.831665,855.259094 1108.895752,904.043457 1070.879272,931.754028 
	C1063.192383,937.356934 1054.572266,941.679260 1045.854004,946.056641 
	C1055.136475,925.757324 1062.088013,905.134338 1064.775635,883.223267 
	C1064.928711,881.974854 1064.795410,880.691284 1064.795410,878.494446 
	C1048.072754,897.099731 1040.061523,919.492554 1030.655151,942.394958 
	C1026.541016,929.939819 1024.378174,918.347229 1023.873047,905.937073 
z"/>
<path fill="#184A34" opacity="1.000000" stroke="none" 
	d="
M1158.373047,1357.660400 
	C1158.659424,1358.513672 1158.817383,1358.987427 1158.949463,1359.468384 
	C1162.373657,1371.933716 1161.934692,1372.503662 1149.199219,1373.974121 
	C1133.557983,1375.780151 1117.903931,1376.799561 1102.704224,1371.630493 
	C1075.604614,1362.414917 1059.111572,1343.352417 1052.114990,1315.818604 
	C1050.934570,1311.173340 1049.959595,1306.475830 1048.592041,1300.502686 
	C1064.922241,1315.694458 1080.400024,1329.994507 1101.146973,1336.224487 
	C1101.495972,1335.844482 1101.844971,1335.464478 1102.193848,1335.084473 
	C1084.495361,1316.454224 1066.796753,1297.823975 1048.886353,1278.970825 
	C1062.584106,1276.888916 1098.565552,1285.165894 1117.688232,1299.040405 
	C1138.085205,1313.839478 1151.216309,1333.346436 1158.373047,1357.660400 
z"/>
<path fill="#184B35" opacity="1.000000" stroke="none" 
	d="
M971.839478,1608.133301 
	C1012.232056,1612.139648 1052.249512,1615.407593 1092.067993,1620.296753 
	C1130.532227,1625.019653 1168.794556,1631.393921 1207.134277,1637.117432 
	C1209.833984,1637.520386 1212.441528,1638.541382 1215.021484,1639.595947 
	C1112.778564,1655.908447 1013.410339,1646.632202 917.398132,1607.089722 
	C917.433655,1606.475098 917.469238,1605.860596 917.504761,1605.246094 
	C935.462280,1606.198730 953.419800,1607.151245 971.839478,1608.133301 
z"/>
<path fill="#184A34" opacity="1.000000" stroke="none" 
	d="
M815.372192,695.636597 
	C828.159973,709.818970 836.704041,725.654114 839.237305,744.480408 
	C842.528137,768.935730 835.224731,790.125610 819.745850,808.854858 
	C817.965088,811.009705 815.958862,812.978088 813.185425,814.686462 
	C812.643066,792.434326 813.395447,770.479004 804.892944,749.327209 
	C803.580933,756.323425 802.006042,763.283264 801.030396,770.326111 
	C800.049744,777.405823 799.408875,784.556702 799.091431,791.697388 
	C798.768005,798.975037 799.019836,806.278137 799.019836,814.393372 
	C797.597412,813.534302 795.969971,812.966003 794.916077,811.854065 
	C768.525330,784.009705 764.370056,744.050964 784.921448,711.587402 
	C789.872314,703.766846 796.311768,696.886414 802.093689,689.595093 
	C804.314453,686.794617 806.597412,686.578003 809.110291,689.384216 
	C810.995911,691.490112 813.113647,693.388245 815.372192,695.636597 
z"/>
<path fill="#184A34" opacity="1.000000" stroke="none" 
	d="
M403.881348,1281.916504 
	C388.228699,1292.726807 370.832458,1294.270752 352.925690,1293.542725 
	C351.761444,1293.495361 350.601776,1293.344604 349.438263,1293.267578 
	C338.145172,1292.520386 337.318146,1292.382324 339.182831,1281.194092 
	C344.629608,1248.512573 358.857422,1221.477295 390.899780,1207.428345 
	C404.716736,1201.370239 419.421143,1199.731934 434.432770,1201.670166 
	C436.171844,1201.894775 437.844482,1202.634033 440.708588,1203.475830 
	C415.379944,1214.691406 393.591492,1228.667847 380.357941,1253.306519 
	C384.712646,1251.459595 389.222290,1249.906738 393.393005,1247.710449 
	C406.036591,1241.052856 418.540192,1234.129761 431.130402,1227.369751 
	C432.049591,1226.876221 433.781982,1226.334717 434.164612,1226.737793 
	C434.903870,1227.516724 435.432465,1229.056274 435.211182,1230.103760 
	C430.823730,1250.870972 422.653412,1269.406738 403.881348,1281.916504 
z"/>
<path fill="#184A34" opacity="1.000000" stroke="none" 
	d="
M941.012817,884.020874 
	C928.438354,889.974915 918.485229,899.235962 909.426025,909.498535 
	C904.835815,914.698547 900.797791,920.385986 896.181213,926.272400 
	C894.794189,909.133362 896.981445,893.066162 905.629456,878.196655 
	C919.235962,854.801575 940.702026,843.602966 966.413818,839.033325 
	C970.174683,838.364929 973.994507,837.984741 977.802185,837.637268 
	C980.630798,837.379089 982.728394,838.369507 983.003540,841.605774 
	C985.654907,872.789978 978.436523,900.175537 952.332031,920.050903 
	C938.966248,930.227173 923.526184,934.787842 907.728333,935.859314 
	C918.795837,918.945496 930.038452,901.764038 941.294189,884.395386 
	C941.400940,883.956482 941.494507,883.704712 941.588074,883.453003 
	C941.396362,883.642273 941.204590,883.831543 941.012817,884.020874 
z"/>
<path fill="#184B35" opacity="1.000000" stroke="none" 
	d="
M943.836914,1306.913208 
	C918.246277,1311.782349 899.650818,1281.957275 910.325928,1258.624023 
	C917.997253,1241.856567 931.815491,1233.202881 949.316040,1230.078247 
	C988.505249,1223.081421 1027.131470,1252.674072 1029.066895,1297.380005 
	C1029.511841,1307.657715 1025.618286,1315.700073 1016.973389,1321.857178 
	C1016.322327,1315.256104 1016.129700,1308.963623 1015.023132,1302.836060 
	C1010.284546,1276.595947 987.655090,1255.438843 961.207153,1252.496704 
	C949.863525,1251.234741 939.624756,1254.081177 931.764099,1262.800537 
	C925.349670,1269.915771 925.736755,1279.467651 932.230225,1284.521851 
	C936.721619,1288.017700 941.498474,1287.699219 944.556030,1283.699951 
	C947.655151,1279.646484 947.123047,1274.661011 942.639160,1271.532715 
	C938.870911,1268.903687 939.575378,1266.222046 942.616943,1264.639038 
	C945.430542,1263.174438 949.369568,1262.084595 952.260620,1262.868042 
	C964.395935,1266.156494 969.997375,1281.282349 963.622314,1292.537598 
	C959.315247,1300.141602 953.094360,1305.320923 943.836914,1306.913208 
z"/>
<path fill="#184B35" opacity="1.000000" stroke="none" 
	d="
M611.262146,1241.247803 
	C631.728577,1226.936646 653.488892,1224.714111 676.006348,1233.816650 
	C692.525513,1240.494385 703.548157,1258.093506 702.969849,1274.246460 
	C702.264771,1293.939697 684.076111,1310.002197 665.475220,1307.000854 
	C655.197998,1305.342773 648.434265,1298.924805 645.116333,1289.223877 
	C642.162476,1280.587158 644.203369,1272.773926 650.578613,1266.238037 
	C654.063599,1262.665283 658.231018,1261.109741 663.292969,1262.585205 
	C669.515137,1264.399048 670.251587,1266.477051 666.302307,1271.621094 
	C662.455811,1276.631226 662.658203,1281.557739 667.481384,1284.963501 
	C669.194458,1286.173218 672.243408,1286.703369 674.237000,1286.091553 
	C682.419983,1283.579956 685.442139,1273.798584 680.459656,1265.927002 
	C675.116272,1257.485474 667.011475,1253.010742 657.207947,1252.270508 
	C634.271484,1250.538818 617.619690,1261.565552 604.832153,1279.399170 
	C597.228699,1290.003174 592.415894,1301.747314 592.822693,1315.197876 
	C592.867004,1316.664307 591.431030,1318.175537 590.681580,1319.666016 
	C589.243164,1318.709229 587.276367,1318.078613 586.451782,1316.742920 
	C580.903259,1307.754272 580.361450,1297.936768 582.222656,1287.809692 
	C585.752319,1268.603882 595.308105,1253.137207 611.262146,1241.247803 
z"/>
<path fill="#194B35" opacity="1.000000" stroke="none" 
	d="
M443.671356,1646.186035 
	C422.333801,1644.246338 401.464722,1642.335327 380.595673,1640.424316 
	C380.593109,1639.937866 380.590546,1639.451416 380.587982,1638.964966 
	C475.351501,1625.001709 569.857300,1608.894409 665.821777,1604.920532 
	C665.948853,1605.338501 666.075989,1605.756592 666.203125,1606.174561 
	C653.900940,1610.924072 641.703979,1615.970459 629.278748,1620.372681 
	C569.344177,1641.607056 507.518127,1649.529907 443.671356,1646.186035 
z"/>
<path fill="#194B35" opacity="1.000000" stroke="none" 
	d="
M624.252075,959.677490 
	C615.929199,942.629639 615.978088,925.981323 623.686157,909.396973 
	C624.231323,909.293457 624.776428,909.189880 625.321533,909.086304 
	C625.888916,910.591064 626.734131,912.051331 626.982849,913.606995 
	C632.936707,950.854004 659.399231,978.280151 696.430420,985.528076 
	C711.685425,988.513855 726.569580,985.898621 741.419678,982.643250 
	C743.647461,982.154907 745.888245,981.725281 748.000000,981.293701 
	C743.753845,988.172607 738.480347,994.521057 735.713623,1001.819763 
	C732.984314,1009.019836 728.933838,1011.075989 721.830811,1011.569214 
	C685.821411,1014.069702 642.945374,995.960876 624.252075,959.677490 
z"/>
<path fill="#184B34" opacity="1.000000" stroke="none" 
	d="
M1244.129272,1271.895874 
	C1246.158325,1276.653809 1248.133423,1281.040283 1249.841797,1285.528198 
	C1250.732422,1287.868042 1250.810669,1290.371094 1247.463989,1290.848755 
	C1239.120239,1292.039917 1230.757324,1293.969849 1222.398315,1293.989136 
	C1207.640259,1294.023193 1196.489258,1286.309814 1189.795410,1273.655029 
	C1182.392212,1259.658936 1176.442383,1244.894165 1170.175659,1230.081177 
	C1179.505981,1237.849731 1190.907959,1239.119141 1202.020874,1241.463135 
	C1220.333740,1245.325928 1234.659058,1255.018066 1244.129272,1271.895874 
z"/>
<path fill="#184A34" opacity="1.000000" stroke="none" 
	d="
M366.396301,1138.275391 
	C374.745270,1135.433716 382.867676,1133.795898 391.286469,1135.486572 
	C402.979309,1137.834717 411.338959,1144.949341 417.405853,1154.812622 
	C422.251373,1162.689941 426.589844,1170.879150 431.210632,1179.030884 
	C419.006927,1179.030884 406.680054,1179.769531 394.474945,1178.864990 
	C374.077576,1177.353394 362.314178,1161.859619 356.011780,1146.695557 
	C354.926819,1144.084961 355.814423,1142.172974 358.546539,1141.189209 
	C361.047668,1140.288330 363.532349,1139.341797 366.396301,1138.275391 
z"/>
<path fill="#184B34" opacity="1.000000" stroke="none" 
	d="
M591.231812,799.699829 
	C583.401245,789.091431 583.212708,777.503113 585.392395,765.573730 
	C586.173340,761.299255 588.920166,759.422974 593.317810,759.938232 
	C617.358887,762.755188 632.936890,779.272095 631.117065,802.121460 
	C630.747498,806.761658 630.648193,811.435913 629.985657,816.031311 
	C629.823669,817.154785 627.567444,819.092102 626.887817,818.859741 
	C614.079407,814.481567 600.415527,811.593933 591.231812,799.699829 
z"/>
<path fill="#184A34" opacity="1.000000" stroke="none" 
	d="
M1021.177002,763.777344 
	C1028.591675,776.214355 1023.599426,798.622131 1011.756042,807.877136 
	C1006.489502,811.992554 986.641602,819.187927 979.406799,819.604553 
	C969.989502,789.825256 990.866943,761.583435 1021.177002,763.777344 
z"/>
<path fill="#184B35" opacity="1.000000" stroke="none" 
	d="
M609.924683,1383.816650 
	C607.576050,1391.190552 606.945190,1391.543213 599.921814,1389.753052 
	C579.035400,1384.429565 567.728333,1364.435913 574.050354,1343.781738 
	C575.408691,1339.343750 577.321716,1335.078125 578.877686,1330.697144 
	C579.927124,1327.742554 581.622925,1327.106079 584.155579,1328.950073 
	C589.532593,1332.864868 595.126160,1336.526611 600.202637,1340.800781 
	C611.624695,1350.417847 615.202271,1362.732910 611.696533,1377.169922 
	C611.187012,1379.268188 610.572693,1381.340942 609.924683,1383.816650 
z"/>
<path fill="#184A34" opacity="1.000000" stroke="none" 
	d="
M1016.779297,1381.804199 
	C1010.452393,1385.073486 1004.474487,1388.279663 998.277588,1390.984009 
	C997.219788,1391.445679 994.468567,1390.198120 993.776245,1389.001465 
	C982.781433,1369.999634 986.943848,1350.335815 1004.578979,1337.423950 
	C1007.925537,1334.973633 1011.452087,1332.752319 1015.005432,1330.607178 
	C1017.422058,1329.148193 1019.861145,1329.076050 1021.328308,1332.031372 
	C1025.730103,1340.898560 1029.141846,1350.043579 1028.412842,1360.195801 
	C1027.781982,1368.977295 1023.878296,1376.060669 1016.779297,1381.804199 
z"/>
<path fill="#184B34" opacity="1.000000" stroke="none" 
	d="
M1155.882812,1077.100098 
	C1151.050659,1076.305908 1146.663208,1075.560547 1141.813232,1074.736450 
	C1142.312988,1073.084229 1142.428955,1071.926514 1142.972900,1071.027954 
	C1146.331543,1065.481567 1149.605225,1059.870361 1153.244995,1054.510010 
	C1163.026367,1040.104370 1176.680176,1035.416748 1193.264160,1040.531006 
	C1207.513794,1044.925415 1207.885742,1045.909668 1200.111206,1058.650024 
	C1190.840820,1073.841553 1174.545044,1080.726562 1155.882812,1077.100098 
z"/>
<path fill="#184B34" opacity="1.000000" stroke="none" 
	d="
M450.632996,882.200928 
	C469.108490,884.565430 479.668396,895.156128 481.802856,913.407654 
	C482.341034,918.009460 482.085785,922.703308 482.210815,927.354431 
	C482.293030,930.412292 480.769470,931.683167 477.851624,931.060242 
	C468.242554,929.008789 458.615082,926.742310 450.612488,920.705505 
	C438.907745,911.875916 436.296356,899.257935 437.265930,885.551880 
	C437.355194,884.289917 439.707336,882.452209 441.235840,882.186096 
	C444.131104,881.682007 447.191162,882.124695 450.632996,882.200928 
z"/>
<path fill="#184B34" opacity="1.000000" stroke="none" 
	d="
M1158.285889,887.396484 
	C1157.346802,900.166138 1151.134033,909.159729 1140.301025,914.664673 
	C1134.578125,917.572876 1128.326538,919.470398 1122.244507,921.629639 
	C1119.318237,922.668579 1117.223145,921.475769 1117.013062,918.246460 
	C1116.657715,912.780579 1115.922485,907.241028 1116.430786,901.834412 
	C1118.544434,879.354309 1135.756226,870.885254 1152.709717,869.888123 
	C1154.167969,869.802368 1156.830444,871.774841 1157.092651,873.143799 
	C1157.958740,877.666077 1157.979980,882.350281 1158.285889,887.396484 
z"/>
<path fill="#194B35" opacity="1.000000" stroke="none" 
	d="
M620.943115,1117.946289 
	C604.201416,1122.040161 590.243408,1117.066650 581.891663,1104.485352 
	C579.868347,1101.437256 580.163452,1099.751709 583.365112,1097.746216 
	C600.135925,1087.241333 614.978516,1088.906982 628.712891,1103.202393 
	C632.466187,1107.109009 636.025085,1111.202271 639.588928,1115.117432 
	C633.340576,1116.062622 627.353882,1116.968262 620.943115,1117.946289 
z"/>
<path fill="#184B35" opacity="1.000000" stroke="none" 
	d="
M1203.728027,948.875122 
	C1210.231079,948.013184 1211.322266,948.865662 1212.075195,955.038147 
	C1213.707642,968.423767 1209.021362,977.612061 1196.781494,983.318176 
	C1191.741943,985.667542 1186.117188,986.790955 1180.716431,988.323730 
	C1178.060547,989.077515 1176.295654,987.699707 1176.363647,985.075500 
	C1176.521484,978.977295 1176.285889,972.722961 1177.584717,966.835266 
	C1179.424805,958.494263 1185.946777,953.955505 1193.675537,951.276978 
	C1196.789795,950.197693 1200.100342,949.685059 1203.728027,948.875122 
z"/>
<path fill="#194C35" opacity="1.000000" stroke="none" 
	d="
M1216.360596,1225.305176 
	C1202.069458,1226.822266 1194.760498,1217.360962 1186.919678,1208.479370 
	C1201.758545,1195.432983 1226.671265,1200.332153 1236.489380,1218.870728 
	C1229.791260,1221.036743 1223.282837,1223.141479 1216.360596,1225.305176 
z"/>
<path fill="#1A4C35" opacity="1.000000" stroke="none" 
	d="
M837.885254,1066.975342 
	C840.338684,1064.714355 842.429871,1062.528931 844.864563,1060.838257 
	C850.836487,1056.691284 852.665466,1057.222290 855.940857,1063.557129 
	C860.946716,1073.238892 859.329529,1083.167603 850.855286,1090.038696 
	C846.047729,1093.936768 840.437439,1096.844849 834.885986,1100.392090 
	C833.703003,1088.728271 829.593567,1077.481079 837.885254,1066.975342 
z"/>
<path fill="#D5E9B7" opacity="1.000000" stroke="none" 
	d="
M910.293701,1097.327148 
	C910.083862,1097.361450 909.685486,1097.185547 909.499390,1096.860840 
	C909.842896,1096.847168 909.973999,1096.982178 910.293701,1097.327148 
z"/>
<path fill="#D0E5B4" opacity="1.000000" stroke="none" 
	d="
M1089.711060,1223.281860 
	C1092.043335,1225.176880 1094.124268,1226.825195 1096.205322,1228.473511 
	C1095.765869,1229.058594 1095.326416,1229.643555 1094.886963,1230.228638 
	C1063.773438,1222.921387 1037.233765,1205.812256 1009.947205,1189.753174 
	C1027.977295,1187.092041 1069.789185,1204.675781 1089.711060,1223.281860 
z"/>
<path fill="#D5E9B7" opacity="1.000000" stroke="none" 
	d="
M906.948059,779.930664 
	C907.058044,779.549377 907.388000,779.369812 907.717957,779.190186 
	C907.782898,779.462769 907.847839,779.735291 907.772949,780.257446 
	C907.478149,780.382141 907.323120,780.257263 906.948059,779.930664 
z"/>
<path fill="#D5E9B7" opacity="1.000000" stroke="none" 
	d="
M537.411987,889.721130 
	C537.315979,889.598694 537.635376,889.504578 537.635376,889.504578 
	C537.635376,889.504578 537.507935,889.843567 537.411987,889.721130 
z"/>
<path fill="#D5E9B7" opacity="1.000000" stroke="none" 
	d="
M940.993042,883.991882 
	C941.204590,883.831543 941.396362,883.642273 941.588074,883.453003 
	C941.494507,883.704712 941.400940,883.956482 941.123169,884.055054 
	C940.938843,883.901917 940.973328,883.962891 940.993042,883.991882 
z"/>
</svg>